<svg width="384" height="384" viewBox="0 0 384 384" fill="none" xmlns="http://www.w3.org/2000/svg">
<rect width="384" height="384" fill="#E5E5E5"/>
<path d="M178.445 127.055H154.617V271H178.445V127.055ZM94.4609 206.156H146.609V190.141H94.4609V206.156ZM88.4062 127.055V144.828H146.609V127.055H88.4062Z" fill="black"/>
<path d="M178.445 127.055V126.055H179.445V127.055H178.445ZM154.617 127.055H153.617V126.055H154.617V127.055ZM154.617 271V272H153.617V271H154.617ZM178.445 271H179.445V272H178.445V271ZM94.4609 206.156V207.156H93.4609V206.156H94.4609ZM146.609 206.156H147.609V207.156H146.609V206.156ZM146.609 190.141V189.141H147.609V190.141H146.609ZM94.4609 190.141H93.4609V189.141H94.4609V190.141ZM88.4062 127.055H87.4062V126.055H88.4062V127.055ZM88.4062 144.828V145.828H87.4062V144.828H88.4062ZM146.609 144.828H147.609V145.828H146.609V144.828ZM146.609 127.055V126.055H147.609V127.055H146.609ZM178.445 128.055H154.617V126.055H178.445V128.055ZM155.617 127.055V271H153.617V127.055H155.617ZM154.617 270H178.445V272H154.617V270ZM177.445 271V127.055H179.445V271H177.445ZM94.4609 205.156H146.609V207.156H94.4609V205.156ZM145.609 206.156V190.141H147.609V206.156H145.609ZM146.609 191.141H94.4609V189.141H146.609V191.141ZM95.4609 190.141V206.156H93.4609V190.141H95.4609ZM89.4062 127.055V144.828H87.4062V127.055H89.4062ZM88.4062 143.828H146.609V145.828H88.4062V143.828ZM145.609 144.828V127.055H147.609V144.828H145.609ZM146.609 128.055H88.4062V126.055H146.609V128.055Z" fill="black"/>
<path d="M228.992 127.055V253.227H295.203V271H205.164V127.055H228.992Z" fill="black"/>
<path d="M228.992 127.055H229.992V126.055H228.992V127.055ZM228.992 253.227H227.992V254.227H228.992V253.227ZM295.203 253.227H296.203V252.227H295.203V253.227ZM295.203 271V272H296.203V271H295.203ZM205.164 271H204.164V272H205.164V271ZM205.164 127.055V126.055H204.164V127.055H205.164ZM227.992 127.055V253.227H229.992V127.055H227.992ZM228.992 254.227H295.203V252.227H228.992V254.227ZM294.203 253.227V271H296.203V253.227H294.203ZM295.203 270H205.164V272H295.203V270ZM206.164 271V127.055H204.164V271H206.164ZM205.164 128.055H228.992V126.055H205.164V128.055Z" fill="black"/>
<circle cx="192" cy="192" r="179.5" stroke="#215F04" stroke-width="25"/>
</svg>
